<?xml version="1.0" encoding="utf-8"?>
<!-- Generator: Adobe Illustrator 23.0.1, SVG Export Plug-In . SVG Version: 6.00 Build 0)  -->
<svg version="1.1"
	 id="Calque_1" xmlns:cc="http://creativecommons.org/ns#" xmlns:dc="http://purl.org/dc/elements/1.1/" xmlns:rdf="http://www.w3.org/1999/02/22-rdf-syntax-ns#"
	 xmlns="http://www.w3.org/2000/svg" xmlns:xlink="http://www.w3.org/1999/xlink" x="0px" y="0px" viewBox="0 0 1333 301.5"
	 style="enable-background:new 0 0 1333 301.5;" xml:space="preserve">
<style type="text/css">
	.st0{clip-path:url(#SVGID_2_);fill:#A8DCF6;}
	.st1{clip-path:url(#SVGID_4_);fill:#172D52;}
	.st2{clip-path:url(#SVGID_6_);fill:#FFFFFF;}
	.st3{clip-path:url(#SVGID_8_);fill:#0060A3;}
	.st4{clip-path:url(#SVGID_10_);fill:#A8DCF6;}
	.st5{clip-path:url(#SVGID_12_);fill:#172D52;}
	.st6{clip-path:url(#SVGID_14_);fill:#FFFFFF;}
	.st7{clip-path:url(#SVGID_16_);fill:#0060A3;}
	.st8{clip-path:url(#SVGID_18_);}
	.st9{opacity:0.7;clip-path:url(#SVGID_20_);}
	.st10{clip-path:url(#SVGID_22_);fill:#FFFFFF;}
	.st11{opacity:0.7;clip-path:url(#SVGID_24_);}
	.st12{clip-path:url(#SVGID_26_);fill:#FFFFFF;}
	.st13{clip-path:url(#SVGID_28_);fill:#0060A3;}
	.st14{clip-path:url(#SVGID_30_);fill:#FFFFFF;}
	.st15{clip-path:url(#SVGID_32_);fill:#172D52;}
	.st16{clip-path:url(#SVGID_34_);fill:#A8DCF6;}
	.st17{clip-path:url(#SVGID_36_);}
	.st18{clip-path:url(#SVGID_38_);fill:#FFFFFF;}
	.st19{clip-path:url(#SVGID_40_);fill:#FFFFFF;}
	.st20{clip-path:url(#SVGID_42_);fill:#FFFFFF;}
	.st21{clip-path:url(#SVGID_44_);fill:#FFFFFF;}
	.st22{clip-path:url(#SVGID_46_);fill:#FFFFFF;}
	.st23{clip-path:url(#SVGID_48_);fill:#A8DCF6;}
	.st24{clip-path:url(#SVGID_50_);fill:#A8DCF6;}
	.st25{clip-path:url(#SVGID_52_);fill:#A8DCF6;}
	.st26{clip-path:url(#SVGID_54_);fill:#A8DCF6;}
	.st27{clip-path:url(#SVGID_56_);fill:#0060A3;}
	.st28{clip-path:url(#SVGID_58_);fill:#FFFFFF;}
	.st29{clip-path:url(#SVGID_60_);fill:#172D52;}
	.st30{clip-path:url(#SVGID_62_);fill:#A8DCF6;}
	.st31{clip-path:url(#SVGID_64_);fill:#0060A3;}
	.st32{clip-path:url(#SVGID_66_);fill:#FFFFFF;}
	.st33{clip-path:url(#SVGID_68_);fill:#172D52;}
	.st34{clip-path:url(#SVGID_70_);fill:#A8DCF6;}
</style>
<g id="boat">
	<g>
		<defs>
			<rect id="SVGID_1_" x="-10" y="-338.9" width="1043.3" height="841.9"/>
		</defs>
		<clipPath id="SVGID_2_">
			<use xlink:href="#SVGID_1_"  style="overflow:visible;"/>
		</clipPath>
		<rect x="146.5" y="86" class="st0" width="6.5" height="16.3"/>
	</g>
	<g>
		<defs>
			<rect id="SVGID_3_" x="-10" y="-338.9" width="1043.3" height="841.9"/>
		</defs>
		<clipPath id="SVGID_4_">
			<use xlink:href="#SVGID_3_"  style="overflow:visible;"/>
		</clipPath>
		<rect x="146.5" y="76.3" class="st1" width="6.5" height="9.7"/>
	</g>
	<g>
		<defs>
			<rect id="SVGID_5_" x="-10" y="-338.9" width="1043.3" height="841.9"/>
		</defs>
		<clipPath id="SVGID_6_">
			<use xlink:href="#SVGID_5_"  style="overflow:visible;"/>
		</clipPath>
		<rect x="153" y="86" class="st2" width="6.5" height="16.3"/>
	</g>
	<g>
		<defs>
			<rect id="SVGID_7_" x="-10" y="-338.9" width="1043.3" height="841.9"/>
		</defs>
		<clipPath id="SVGID_8_">
			<use xlink:href="#SVGID_7_"  style="overflow:visible;"/>
		</clipPath>
		<rect x="153" y="76.3" class="st3" width="6.5" height="9.7"/>
	</g>
	<g>
		<defs>
			<rect id="SVGID_9_" x="-10" y="-338.9" width="1043.3" height="841.9"/>
		</defs>
		<clipPath id="SVGID_10_">
			<use xlink:href="#SVGID_9_"  style="overflow:visible;"/>
		</clipPath>
		<rect x="106.4" y="79" class="st4" width="6.5" height="4.7"/>
	</g>
	<g>
		<defs>
			<rect id="SVGID_11_" x="-10" y="-338.9" width="1043.3" height="841.9"/>
		</defs>
		<clipPath id="SVGID_12_">
			<use xlink:href="#SVGID_11_"  style="overflow:visible;"/>
		</clipPath>
		<rect x="106.4" y="69.3" class="st5" width="6.5" height="9.7"/>
	</g>
	<g>
		<defs>
			<rect id="SVGID_13_" x="-10" y="-338.9" width="1043.3" height="841.9"/>
		</defs>
		<clipPath id="SVGID_14_">
			<use xlink:href="#SVGID_13_"  style="overflow:visible;"/>
		</clipPath>
		<rect x="112.9" y="79" class="st6" width="6.5" height="4.7"/>
	</g>
	<g>
		<defs>
			<rect id="SVGID_15_" x="-10" y="-338.9" width="1043.3" height="841.9"/>
		</defs>
		<clipPath id="SVGID_16_">
			<use xlink:href="#SVGID_15_"  style="overflow:visible;"/>
		</clipPath>
		<rect x="112.9" y="69.3" class="st7" width="6.5" height="9.7"/>
	</g>
	<g>
		<defs>
			<rect id="SVGID_17_" x="-10" y="-338.9" width="1043.3" height="841.9"/>
		</defs>
		<clipPath id="SVGID_18_">
			<use xlink:href="#SVGID_17_"  style="overflow:visible;"/>
		</clipPath>
		<g class="st8">
			<g>
				<defs>
					<rect id="SVGID_19_" x="-10" y="-338.9" width="1043.3" height="841.9"/>
				</defs>
				<clipPath id="SVGID_20_">
					<use xlink:href="#SVGID_19_"  style="overflow:visible;"/>
				</clipPath>
				<g class="st9">
					<g>
						<defs>
							<rect id="SVGID_21_" x="124.6" y="28.2" width="37" height="43.6"/>
						</defs>
						<clipPath id="SVGID_22_">
							<use xlink:href="#SVGID_21_"  style="overflow:visible;"/>
						</clipPath>
						<path class="st10" d="M124.6,44.1c0-8.8,7.1-15.9,15.9-15.9c8.8,0,15.9,7.1,15.9,15.9c0,2-0.4,3.8-1,5.5
							c3.7,2,6.2,5.9,6.2,10.4c0,6.5-5.3,11.8-11.8,11.8c-6.5,0-11.8-5.3-11.8-11.8c0-0.1,0-0.1,0-0.2
							C130.4,58.5,124.6,52,124.6,44.1"/>
					</g>
				</g>
			</g>
			<g>
				<defs>
					<rect id="SVGID_23_" x="-10" y="-338.9" width="1043.3" height="841.9"/>
				</defs>
				<clipPath id="SVGID_24_">
					<use xlink:href="#SVGID_23_"  style="overflow:visible;"/>
				</clipPath>
				<g class="st11">
					<g>
						<defs>
							<rect id="SVGID_25_" x="74.9" y="11.4" width="44" height="51.8"/>
						</defs>
						<clipPath id="SVGID_26_">
							<use xlink:href="#SVGID_25_"  style="overflow:visible;"/>
						</clipPath>
						<path class="st12" d="M74.9,30.3c0-10.4,8.5-18.9,18.9-18.9c10.4,0,18.9,8.5,18.9,18.9c0,2.3-0.4,4.5-1.2,6.6
							c4.4,2.4,7.4,7,7.4,12.3c0,7.8-6.3,14-14,14c-7.8,0-14-6.3-14-14c0-0.1,0-0.2,0-0.3C81.8,47.4,74.9,39.7,74.9,30.3"/>
					</g>
				</g>
			</g>
		</g>
	</g>
	<g>
		<defs>
			<rect id="SVGID_27_" x="-10" y="-338.9" width="1043.3" height="841.9"/>
		</defs>
		<clipPath id="SVGID_28_">
			<use xlink:href="#SVGID_27_"  style="overflow:visible;"/>
		</clipPath>
		<polygon class="st13" points="124.6,128.2 233.8,128.2 216.2,150.5 124.6,150.5 		"/>
	</g>
	<g>
		<defs>
			<rect id="SVGID_29_" x="-10" y="-338.9" width="1043.3" height="841.9"/>
		</defs>
		<clipPath id="SVGID_30_">
			<use xlink:href="#SVGID_29_"  style="overflow:visible;"/>
		</clipPath>
		<polygon class="st14" points="216.2,150.5 189.9,184 124.6,184 124.6,150.5 		"/>
	</g>
	<g>
		<defs>
			<rect id="SVGID_31_" x="-10" y="-338.9" width="1043.3" height="841.9"/>
		</defs>
		<clipPath id="SVGID_32_">
			<use xlink:href="#SVGID_31_"  style="overflow:visible;"/>
		</clipPath>
		<polygon class="st15" points="42.5,150.5 30,128.2 124.6,128.2 124.6,150.5 		"/>
	</g>
	<g>
		<defs>
			<rect id="SVGID_33_" x="-10" y="-338.9" width="1043.3" height="841.9"/>
		</defs>
		<clipPath id="SVGID_34_">
			<use xlink:href="#SVGID_33_"  style="overflow:visible;"/>
		</clipPath>
		<polygon class="st16" points="42.5,150.5 124.6,150.5 124.6,184 61.5,184 		"/>
	</g>
	<g>
		<defs>
			<rect id="SVGID_35_" x="-10" y="-338.9" width="1043.3" height="841.9"/>
		</defs>
		<clipPath id="SVGID_36_">
			<use xlink:href="#SVGID_35_"  style="overflow:visible;"/>
		</clipPath>
		<g class="st17">
			<g>
				<g>
					<defs>
						<rect id="SVGID_37_" x="-10" y="-338.9" width="1043.3" height="841.9"/>
					</defs>
					<clipPath id="SVGID_38_">
						<use xlink:href="#SVGID_37_"  style="overflow:visible;"/>
					</clipPath>
					<path class="st18" d="M188.8,140.3c0,2.2,1.8,4,4,4c2.2,0,4-1.8,4-4c0-2.2-1.8-4-4-4C190.6,136.2,188.8,138.1,188.8,140.3"/>
				</g>
				<g>
					<defs>
						<rect id="SVGID_39_" x="-10" y="-338.9" width="1043.3" height="841.9"/>
					</defs>
					<clipPath id="SVGID_40_">
						<use xlink:href="#SVGID_39_"  style="overflow:visible;"/>
					</clipPath>
					<path class="st19" d="M173.7,140.3c0,2.2,1.8,4,4.1,4c2.2,0,4-1.8,4-4c0-2.2-1.8-4-4-4C175.5,136.2,173.7,138.1,173.7,140.3"/>
				</g>
				<g>
					<defs>
						<rect id="SVGID_41_" x="-10" y="-338.9" width="1043.3" height="841.9"/>
					</defs>
					<clipPath id="SVGID_42_">
						<use xlink:href="#SVGID_41_"  style="overflow:visible;"/>
					</clipPath>
					<path class="st20" d="M158.6,140.3c0,2.2,1.8,4,4.1,4c2.2,0,4-1.8,4-4s-1.8-4-4-4C160.4,136.2,158.6,138.1,158.6,140.3"/>
				</g>
				<g>
					<defs>
						<rect id="SVGID_43_" x="-10" y="-338.9" width="1043.3" height="841.9"/>
					</defs>
					<clipPath id="SVGID_44_">
						<use xlink:href="#SVGID_43_"  style="overflow:visible;"/>
					</clipPath>
					<path class="st21" d="M143.5,140.3c0,2.2,1.8,4,4,4c2.2,0,4.1-1.8,4.1-4c0-2.2-1.8-4.1-4.1-4.1
						C145.3,136.2,143.5,138.1,143.5,140.3"/>
				</g>
				<g>
					<defs>
						<rect id="SVGID_45_" x="-10" y="-338.9" width="1043.3" height="841.9"/>
					</defs>
					<clipPath id="SVGID_46_">
						<use xlink:href="#SVGID_45_"  style="overflow:visible;"/>
					</clipPath>
					<path class="st22" d="M128.4,140.3c0,2.2,1.8,4,4.1,4c2.2,0,4-1.8,4-4c0-2.2-1.8-4.1-4-4.1
						C130.3,136.2,128.4,138.1,128.4,140.3"/>
				</g>
			</g>
			<g>
				<g>
					<defs>
						<rect id="SVGID_47_" x="-10" y="-338.9" width="1043.3" height="841.9"/>
					</defs>
					<clipPath id="SVGID_48_">
						<use xlink:href="#SVGID_47_"  style="overflow:visible;"/>
					</clipPath>
					<path class="st23" d="M113.3,140.3c0,2.2,1.8,4,4,4c2.2,0,4-1.8,4-4c0-2.2-1.8-4-4-4C115.2,136.2,113.3,138.1,113.3,140.3"/>
				</g>
				<g>
					<defs>
						<rect id="SVGID_49_" x="-10" y="-338.9" width="1043.3" height="841.9"/>
					</defs>
					<clipPath id="SVGID_50_">
						<use xlink:href="#SVGID_49_"  style="overflow:visible;"/>
					</clipPath>
					<path class="st24" d="M98.3,140.3c0,2.2,1.8,4,4,4c2.2,0,4-1.8,4-4s-1.8-4-4-4C100.1,136.2,98.3,138.1,98.3,140.3"/>
				</g>
				<g>
					<defs>
						<rect id="SVGID_51_" x="-10" y="-338.9" width="1043.3" height="841.9"/>
					</defs>
					<clipPath id="SVGID_52_">
						<use xlink:href="#SVGID_51_"  style="overflow:visible;"/>
					</clipPath>
					<path class="st25" d="M83.2,140.3c0,2.2,1.8,4,4,4c2.2,0,4-1.8,4-4c0-2.2-1.8-4-4-4C85,136.2,83.2,138.1,83.2,140.3"/>
				</g>
				<g>
					<defs>
						<rect id="SVGID_53_" x="-10" y="-338.9" width="1043.3" height="841.9"/>
					</defs>
					<clipPath id="SVGID_54_">
						<use xlink:href="#SVGID_53_"  style="overflow:visible;"/>
					</clipPath>
					<path class="st26" d="M68.1,140.3c0,2.2,1.8,4,4,4c2.2,0,4-1.8,4-4c0-2.2-1.8-4.1-4-4.1C69.9,136.2,68.1,138.1,68.1,140.3"/>
				</g>
			</g>
			<g>
				<defs>
					<rect id="SVGID_55_" x="-10" y="-338.9" width="1043.3" height="841.9"/>
				</defs>
				<clipPath id="SVGID_56_">
					<use xlink:href="#SVGID_55_"  style="overflow:visible;"/>
				</clipPath>
				<polygon class="st27" points="119.5,102.3 169.3,102.3 172.9,115.3 119.5,115.3 				"/>
			</g>
			<g>
				<defs>
					<rect id="SVGID_57_" x="-10" y="-338.9" width="1043.3" height="841.9"/>
				</defs>
				<clipPath id="SVGID_58_">
					<use xlink:href="#SVGID_57_"  style="overflow:visible;"/>
				</clipPath>
				<polygon class="st28" points="172.9,115.3 176.4,128.2 119.5,128.2 119.5,115.3 				"/>
			</g>
			<g>
				<defs>
					<rect id="SVGID_59_" x="-10" y="-338.9" width="1043.3" height="841.9"/>
				</defs>
				<clipPath id="SVGID_60_">
					<use xlink:href="#SVGID_59_"  style="overflow:visible;"/>
				</clipPath>
				<polygon class="st29" points="66.1,115.3 68.8,102.3 119.5,102.3 119.5,115.3 				"/>
			</g>
			<g>
				<defs>
					<rect id="SVGID_61_" x="-10" y="-338.9" width="1043.3" height="841.9"/>
				</defs>
				<clipPath id="SVGID_62_">
					<use xlink:href="#SVGID_61_"  style="overflow:visible;"/>
				</clipPath>
				<polygon class="st30" points="66.1,115.3 119.5,115.3 119.5,128.2 63.3,128.2 				"/>
			</g>
			<g>
				<defs>
					<rect id="SVGID_63_" x="-10" y="-338.9" width="1043.3" height="841.9"/>
				</defs>
				<clipPath id="SVGID_64_">
					<use xlink:href="#SVGID_63_"  style="overflow:visible;"/>
				</clipPath>
				<polygon class="st31" points="112.9,83.7 130.9,83.7 133.4,93 112.9,93 				"/>
			</g>
			<g>
				<defs>
					<rect id="SVGID_65_" x="-10" y="-338.9" width="1043.3" height="841.9"/>
				</defs>
				<clipPath id="SVGID_66_">
					<use xlink:href="#SVGID_65_"  style="overflow:visible;"/>
				</clipPath>
				<polygon class="st32" points="133.4,93 135.9,102.3 112.9,102.3 112.9,93 				"/>
			</g>
			<g>
				<defs>
					<rect id="SVGID_67_" x="-10" y="-338.9" width="1043.3" height="841.9"/>
				</defs>
				<clipPath id="SVGID_68_">
					<use xlink:href="#SVGID_67_"  style="overflow:visible;"/>
				</clipPath>
				<polygon class="st33" points="89.7,93 91.7,83.7 112.9,83.7 112.9,93 				"/>
			</g>
			<g>
				<defs>
					<rect id="SVGID_69_" x="-10" y="-338.9" width="1043.3" height="841.9"/>
				</defs>
				<clipPath id="SVGID_70_">
					<use xlink:href="#SVGID_69_"  style="overflow:visible;"/>
				</clipPath>
				<polygon class="st34" points="89.7,93 112.9,93 112.9,102.3 87.7,102.3 				"/>
			</g>
		</g>
	</g>
</g>
<g id="iceberg">
	
		<image style="overflow:visible;enable-background:new    ;" width="890" height="1024" xlink:href="BE429B9B.png"  transform="matrix(0.3043 0 0 0.2162 1041.16 74.056)">
	</image>
</g>
</svg>
