<?xml version="1.0" encoding="UTF-8" standalone="no"?>
<!-- Generator: Adobe Illustrator 16.0.0, SVG Export Plug-In . SVG Version: 6.00 Build 0)  -->

<svg
   xmlns:dc="http://purl.org/dc/elements/1.1/"
   xmlns:cc="http://creativecommons.org/ns#"
   xmlns:rdf="http://www.w3.org/1999/02/22-rdf-syntax-ns#"
   xmlns:svg="http://www.w3.org/2000/svg"
   xmlns="http://www.w3.org/2000/svg"
   xmlns:xlink="http://www.w3.org/1999/xlink"
   xmlns:sodipodi="http://sodipodi.sourceforge.net/DTD/sodipodi-0.dtd"
   xmlns:inkscape="http://www.inkscape.org/namespaces/inkscape"
   version="1.1"
   x="0px"
   y="0px"
   width="595.276px"
   height="301.494px"
   viewBox="0 0 595.276 301.494"
   enable-background="new 0 0 595.276 301.494"
   xml:space="preserve"
   id="svg112"
   sodipodi:docname="titanic.svg"
   inkscape:version="0.92.3 (2405546, 2018-03-11)"><metadata
   id="metadata118"><rdf:RDF><cc:Work
       rdf:about=""><dc:format>image/svg+xml</dc:format><dc:type
         rdf:resource="http://purl.org/dc/dcmitype/StillImage" /><dc:title></dc:title></cc:Work></rdf:RDF></metadata><defs
   id="defs116" /><sodipodi:namedview
   pagecolor="#ffffff"
   bordercolor="#666666"
   borderopacity="1"
   objecttolerance="10"
   gridtolerance="10"
   guidetolerance="10"
   inkscape:pageopacity="0"
   inkscape:pageshadow="2"
   inkscape:window-width="1600"
   inkscape:window-height="849"
   id="namedview114"
   showgrid="false"
   inkscape:zoom="0.64003924"
   inkscape:cx="300.76281"
   inkscape:cy="-99.237678"
   inkscape:window-x="0"
   inkscape:window-y="25"
   inkscape:window-maximized="1"
   inkscape:current-layer="svg112" />
<g
   id="boat"
   transform="matrix(0.53810673,0,0,0.55294399,-8.0966875,44.143136)">
	<g
   id="g106">
		<defs
   id="defs3">
			<rect
   id="SVGID_1_"
   y="-338.89001"
   width="595.276"
   height="841.89001"
   x="0" />
		</defs>
		<clipPath
   id="SVGID_2_">
			<use
   xlink:href="#SVGID_1_"
   overflow="visible"
   id="use5"
   style="overflow:visible"
   x="0"
   y="0"
   width="100%"
   height="100%" />
		</clipPath>
		<rect
   x="156.459"
   y="85.999001"
   clip-path="url(#SVGID_2_)"
   width="6.5289998"
   height="16.325001"
   id="rect8"
   style="fill:#a8dcf6" />
		<rect
   x="156.459"
   y="76.287003"
   clip-path="url(#SVGID_2_)"
   width="6.5289998"
   height="9.7119999"
   id="rect10"
   style="fill:#172d52" />
		<rect
   x="162.98801"
   y="85.999001"
   clip-path="url(#SVGID_2_)"
   width="6.5380001"
   height="16.325001"
   id="rect12"
   style="fill:#ffffff" />
		<rect
   x="162.98801"
   y="76.287003"
   clip-path="url(#SVGID_2_)"
   width="6.5380001"
   height="9.7119999"
   id="rect14"
   style="fill:#0060a3" />
		<rect
   x="116.393"
   y="79.035004"
   clip-path="url(#SVGID_2_)"
   width="6.5320001"
   height="4.691"
   id="rect16"
   style="fill:#a8dcf6" />
		<rect
   x="116.393"
   y="69.318001"
   clip-path="url(#SVGID_2_)"
   width="6.5320001"
   height="9.717"
   id="rect18"
   style="fill:#172d52" />
		<rect
   x="122.925"
   y="79.035004"
   clip-path="url(#SVGID_2_)"
   width="6.5380001"
   height="4.691"
   id="rect20"
   style="fill:#ffffff" />
		<rect
   x="122.925"
   y="69.318001"
   clip-path="url(#SVGID_2_)"
   width="6.5380001"
   height="9.717"
   id="rect22"
   style="fill:#0060a3" />
		<g
   clip-path="url(#SVGID_2_)"
   id="g54">
			<defs
   id="defs25">
				<rect
   id="SVGID_3_"
   y="-338.89001"
   width="595.276"
   height="841.89001"
   x="0" />
			</defs>
			<clipPath
   id="SVGID_4_">
				<use
   xlink:href="#SVGID_3_"
   overflow="visible"
   id="use27"
   style="overflow:visible"
   x="0"
   y="0"
   width="100%"
   height="100%" />
			</clipPath>
			<g
   clip-path="url(#SVGID_4_)"
   id="g40"
   style="opacity:0.7">
				<g
   id="g38">
					<defs
   id="defs31">
						<rect
   id="SVGID_5_"
   x="134.604"
   y="28.167"
   width="37.016998"
   height="43.618" />
					</defs>
					<clipPath
   id="SVGID_6_">
						<use
   xlink:href="#SVGID_5_"
   overflow="visible"
   id="use33"
   style="overflow:visible"
   x="0"
   y="0"
   width="100%"
   height="100%" />
					</clipPath>
					<path
   clip-path="url(#SVGID_6_)"
   d="m 134.604,44.062 c 0,-8.775 7.113,-15.895 15.892,-15.895 8.776,0 15.897,7.12 15.897,15.895 0,1.954 -0.374,3.812 -1.013,5.54 3.696,2 6.24,5.859 6.24,10.356 0,6.531 -5.298,11.827 -11.825,11.827 -6.53,0 -11.825,-5.296 -11.825,-11.827 0,-0.07 0.02,-0.136 0.02,-0.216 -7.588,-1.203 -13.386,-7.752 -13.386,-15.68"
   id="path36"
   inkscape:connector-curvature="0"
   style="fill:#ffffff" />
				</g>
			</g>
			<g
   clip-path="url(#SVGID_4_)"
   id="g52"
   style="opacity:0.7">
				<g
   id="g50">
					<defs
   id="defs43">
						<rect
   id="SVGID_7_"
   x="84.875999"
   y="11.37"
   width="43.962002"
   height="51.803001" />
					</defs>
					<clipPath
   id="SVGID_8_">
						<use
   xlink:href="#SVGID_7_"
   overflow="visible"
   id="use45"
   style="overflow:visible"
   x="0"
   y="0"
   width="100%"
   height="100%" />
					</clipPath>
					<path
   clip-path="url(#SVGID_8_)"
   d="m 84.876,30.253 c 0,-10.427 8.453,-18.883 18.877,-18.883 10.429,0 18.882,8.456 18.882,18.883 0,2.314 -0.441,4.521 -1.203,6.571 4.392,2.374 7.406,6.966 7.406,12.303 0,7.756 -6.29,14.046 -14.042,14.046 -7.753,0 -14.041,-6.29 -14.041,-14.046 0,-0.087 0.022,-0.168 0.024,-0.256 C 91.77,47.441 84.876,39.66 84.876,30.253"
   id="path48"
   inkscape:connector-curvature="0"
   style="fill:#ffffff" />
				</g>
			</g>
		</g>
		<polygon
   clip-path="url(#SVGID_2_)"
   points="226.245,150.459 134.604,150.459 134.604,128.223 243.769,128.223 "
   id="polygon56"
   style="fill:#0060a3" />
		<polygon
   clip-path="url(#SVGID_2_)"
   points="134.604,183.957 134.604,150.459 226.245,150.459 199.857,183.957 "
   id="polygon58"
   style="fill:#ffffff" />
		<polygon
   clip-path="url(#SVGID_2_)"
   points="134.604,128.223 134.604,150.459 52.547,150.459 39.975,128.218 "
   id="polygon60"
   style="fill:#172d52" />
		<polygon
   clip-path="url(#SVGID_2_)"
   points="134.604,183.957 71.5,183.957 52.547,150.459 134.604,150.459 "
   id="polygon62"
   style="fill:#a8dcf6" />
		<g
   clip-path="url(#SVGID_2_)"
   id="g104">
			<defs
   id="defs65">
				<rect
   id="SVGID_9_"
   y="-338.89001"
   width="595.276"
   height="841.89001"
   x="0" />
			</defs>
			<clipPath
   id="SVGID_10_">
				<use
   xlink:href="#SVGID_9_"
   overflow="visible"
   id="use67"
   style="overflow:visible"
   x="0"
   y="0"
   width="100%"
   height="100%" />
			</clipPath>
			<path
   clip-path="url(#SVGID_10_)"
   d="m 198.801,140.296 c 0,2.229 1.813,4.038 4.045,4.038 2.238,0 4.047,-1.81 4.048,-4.043 0,-2.232 -1.81,-4.047 -4.048,-4.047 -2.233,0 -4.045,1.815 -4.045,4.052"
   id="path70"
   inkscape:connector-curvature="0"
   style="fill:#ffffff" />
			<path
   clip-path="url(#SVGID_10_)"
   d="m 183.706,140.296 c 0,2.229 1.814,4.038 4.052,4.038 2.235,0 4.046,-1.81 4.046,-4.043 0,-2.232 -1.811,-4.047 -4.046,-4.047 -2.237,0 -4.048,1.815 -4.052,4.052"
   id="path72"
   inkscape:connector-curvature="0"
   style="fill:#ffffff" />
			<path
   clip-path="url(#SVGID_10_)"
   d="m 168.618,140.291 c 0,2.232 1.814,4.043 4.05,4.043 2.238,0 4.045,-1.811 4.045,-4.043 0,-2.232 -1.807,-4.047 -4.045,-4.047 -2.235,0 -4.05,1.815 -4.05,4.047"
   id="path74"
   inkscape:connector-curvature="0"
   style="fill:#ffffff" />
			<path
   clip-path="url(#SVGID_10_)"
   d="m 153.529,140.291 c 0,2.232 1.813,4.043 4.045,4.043 2.235,0 4.05,-1.811 4.05,-4.038 0,-2.237 -1.814,-4.052 -4.05,-4.052 -2.232,0 -4.045,1.815 -4.045,4.047"
   id="path76"
   inkscape:connector-curvature="0"
   style="fill:#ffffff" />
			<path
   clip-path="url(#SVGID_10_)"
   d="m 138.438,140.296 c 0,2.229 1.811,4.038 4.051,4.038 2.229,0 4.046,-1.81 4.046,-4.038 0,-2.237 -1.817,-4.052 -4.046,-4.052 -2.239,0 -4.051,1.815 -4.051,4.052"
   id="path78"
   inkscape:connector-curvature="0"
   style="fill:#ffffff" />
			<path
   clip-path="url(#SVGID_10_)"
   d="m 123.35,140.296 c 0,2.229 1.811,4.038 4.048,4.038 2.232,0 4.043,-1.81 4.043,-4.043 0,-2.232 -1.811,-4.047 -4.043,-4.047 -2.237,0 -4.048,1.815 -4.048,4.052"
   id="path80"
   inkscape:connector-curvature="0"
   style="fill:#a8dcf6" />
			<path
   clip-path="url(#SVGID_10_)"
   d="m 108.26,140.291 c -0.005,2.232 1.809,4.043 4.045,4.043 2.238,0 4.048,-1.811 4.048,-4.043 0,-2.232 -1.81,-4.047 -4.048,-4.047 -2.236,0 -4.045,1.815 -4.045,4.047"
   id="path82"
   inkscape:connector-curvature="0"
   style="fill:#a8dcf6" />
			<path
   clip-path="url(#SVGID_10_)"
   d="m 93.17,140.291 c 0,2.232 1.811,4.043 4.046,4.043 2.233,0 4.047,-1.811 4.045,-4.043 0,-2.232 -1.812,-4.047 -4.045,-4.047 -2.235,0 -4.046,1.815 -4.046,4.047"
   id="path84"
   inkscape:connector-curvature="0"
   style="fill:#a8dcf6" />
			<path
   clip-path="url(#SVGID_10_)"
   d="m 78.082,140.291 c 0,2.232 1.809,4.043 4.042,4.043 2.235,0 4.044,-1.811 4.044,-4.038 0,-2.237 -1.809,-4.052 -4.044,-4.052 -2.233,0 -4.042,1.815 -4.042,4.047"
   id="path86"
   inkscape:connector-curvature="0"
   style="fill:#a8dcf6" />
			<polygon
   clip-path="url(#SVGID_10_)"
   points="182.86,115.278 129.463,115.271 129.463,102.324 179.312,102.324 "
   id="polygon88"
   style="fill:#0060a3" />
			<polygon
   clip-path="url(#SVGID_10_)"
   points="129.463,128.223 129.463,115.271 182.86,115.278 186.413,128.223 "
   id="polygon90"
   style="fill:#ffffff" />
			<polygon
   clip-path="url(#SVGID_10_)"
   points="129.463,102.324 129.463,115.271 76.065,115.271 78.816,102.324 "
   id="polygon92"
   style="fill:#172d52" />
			<polygon
   clip-path="url(#SVGID_10_)"
   points="129.463,128.223 73.315,128.223 76.065,115.271 129.463,115.271 "
   id="polygon94"
   style="fill:#a8dcf6" />
			<polygon
   clip-path="url(#SVGID_10_)"
   points="143.403,93.027 122.925,93.023 122.925,83.728 140.849,83.728 "
   id="polygon96"
   style="fill:#0060a3" />
			<polygon
   clip-path="url(#SVGID_10_)"
   points="122.925,102.324 122.925,93.023 143.403,93.027 145.953,102.324 "
   id="polygon98"
   style="fill:#ffffff" />
			<polygon
   clip-path="url(#SVGID_10_)"
   points="122.925,83.728 122.925,93.023 99.714,93.023 101.687,83.728 "
   id="polygon100"
   style="fill:#172d52" />
			<polygon
   clip-path="url(#SVGID_10_)"
   points="122.925,102.324 97.738,102.324 99.714,93.023 122.925,93.023 "
   id="polygon102"
   style="fill:#a8dcf6" />
		</g>
	</g>
</g>
<g
   id="iceberg"
   transform="matrix(0.53810673,0,0,0.55294399,307.50896,42.580732)">
	
		<image
   xlink:href="/media/stagiaire/2E8CBD2C8CBCF007/Users/stagiaire/Desktop/Iceberg-PNG-Transparent-890x1024.png"
   style="overflow:visible"
   id="image109"
   transform="matrix(0.3043,0,0,0.2162,273.1567,80.0557)"
   height="1024"
   width="890"
   overflow="visible">
	</image>
</g>
</svg>